<?xml version="1.0" standalone="no"?><!DOCTYPE svg PUBLIC "-//W3C//DTD SVG 1.1//EN" "http://www.w3.org/Graphics/SVG/1.1/DTD/svg11.dtd"><svg t="1589088751553" class="icon" viewBox="0 0 1024 1024" version="1.1" xmlns="http://www.w3.org/2000/svg" p-id="3441" xmlns:xlink="http://www.w3.org/1999/xlink" width="128" height="128"><defs><style type="text/css"></style></defs><path d="M0 842.323c0 45.535 37.046 82.58 82.58 82.58h214.71v66.065h-66.064V1024h462.451v-33.032h-66.064v-66.065h214.71c45.535 0 82.58-37.045 82.58-82.58v-49.549H0v49.549z m594.58 148.645H330.324v-66.065H594.58v66.065zM33.033 825.806h858.839v16.517c0 27.317-22.23 49.548-49.548 49.548H82.58c-27.318 0-49.549-22.23-49.549-49.548v-16.517z m0-545.032c0-27.317 22.231-49.548 49.549-49.548h478.967v-33.032H82.581C37.046 198.194 0 235.239 0 280.774v478.968h33.032V280.774z m858.839 379.871h33.032v99.097h-33.032z m-297.29-82.58c0 27.317 22.23 49.548 49.548 49.548h330.323c27.317 0 49.548-22.23 49.548-49.548v-82.581H594.58v82.58z m33.032-49.549h363.355v49.549c0 9.116-7.416 16.516-16.516 16.516H644.129c-9.1 0-16.516-7.4-16.516-16.516v-49.549z m66.064-346.839v82.581h-33.032v33.032h297.29v-33.032h-33.032V148.645h-33.032v115.613h-33.032V115.613h-33.033v148.645h-33.032V148.645h-33.032v115.613H726.71v-82.58z" p-id="3442"></path><path d="M974.452 0H644.129c-27.318 0-49.548 22.23-49.548 49.548V297.29H489.819l-85.438 66.461c-34.684-42.198-85.174-66.46-140.123-66.46-100.17 0-181.677 81.506-181.677 181.677s81.507 181.677 181.677 181.677 181.677-81.507 181.677-181.677c0-18.597-2.79-36.93-8.324-54.503l-31.512 9.91a148.658 148.658 0 0 1 6.804 44.593c0 27.5-7.647 53.198-20.711 75.313l-113.135-84.86-30.72-138.207a149.077 149.077 0 0 1 15.921-0.891c44.66 0 85.702 19.604 114.06 53.694l-41.604 32.371 20.282 26.063L501.15 330.323h93.432v132.129h33.032V49.548c0-9.117 7.416-16.516 16.516-16.516h330.323c9.1 0 16.516 7.4 16.516 16.516v412.904H1024V49.548C1024 22.231 1001.77 0 974.452 0z m-858.84 478.968c0-65.107 42.134-120.42 100.502-140.486l30.653 137.959-68.608 123.49c-37.772-26.986-62.546-71.085-62.546-120.963z m153.882 24.576l102.862 77.147c-27.136 28.804-65.503 46.922-108.098 46.922a147.786 147.786 0 0 1-57.294-11.512l62.53-112.557z" p-id="3443"></path><path d="M660.645 330.323h33.032v33.032h-33.032z m264.258 0h33.032v33.032h-33.032z m-198.193 0H891.87v33.032H726.71zM66.065 726.71h792.774v33.032H66.065z" p-id="3444"></path></svg>