<?xml version="1.0" standalone="no"?><!DOCTYPE svg PUBLIC "-//W3C//DTD SVG 1.1//EN" "http://www.w3.org/Graphics/SVG/1.1/DTD/svg11.dtd"><svg t="1587048196145" class="icon" viewBox="0 0 1024 1024" version="1.1" xmlns="http://www.w3.org/2000/svg" p-id="4357" xmlns:xlink="http://www.w3.org/1999/xlink" width="200" height="200"><defs><style type="text/css"></style></defs><path d="M879.555 254.239c-52.38-74.101-126.251-130.752-211.184-162.562-87.258-32.681-185.022-36.184-274.743-11.555-86.499 23.745-165.167 74.499-222.897 143.074-59.418 70.581-95.465 157.879-103.832 249.698-8.396 92.146 13.102 186.236 59.868 265.977C171.906 815.839 240.652 878.753 321.3 916.89c85.32 40.347 181.661 52.315 274.423 35.461 88.74-16.123 171.566-60.727 235.143-124.495C894.531 764 938.154 680.653 953.994 591.879c4.701-26.35 7.122-53.116 7.164-79.88-0.148-91.857-28.542-182.695-81.603-257.76z m30.315 389.872c-3.372 10.246-7.182 20.344-11.318 30.306-0.25 0.581-0.858 2.017-0.945 2.218a428.308 428.308 0 0 1-4.903 10.882 431.363 431.363 0 0 1-7.589 15.431c-10.04 19.501-21.654 38.18-34.528 55.934a431.855 431.855 0 0 1-4.687 6.321c-0.542 0.719-1.091 1.433-1.638 2.148 0.069-0.101-1.453 1.86-1.624 2.078-3.51 4.462-7.128 8.838-10.809 13.159-7.076 8.304-14.5 16.307-22.179 24.055-7.679 7.749-15.682 15.172-23.921 22.322a436.042 436.042 0 0 1-15.144 12.517l-1.705 1.334a452.635 452.635 0 0 1-6.725 5.065c-17.635 13.033-36.308 24.643-55.707 34.857-9.764 5.141-19.747 9.862-29.876 14.238l-0.707 0.306-0.604 0.252c-1.227 0.512-2.459 1.013-3.691 1.514a430.734 430.734 0 0 1-7.433 2.929c-5.4 2.08-10.851 4.025-16.33 5.885-21.327 7.24-43.245 12.694-65.437 16.509-2.697 0.464-5.401 0.889-8.107 1.301-1.356 0.207-2.714 0.4-4.072 0.594l-0.64 0.092-0.82 0.106c-5.935 0.77-11.889 1.389-17.85 1.913-11.605 1.02-23.254 1.519-34.902 1.612-11.68 0.093-23.362-0.332-35.012-1.169a434.497 434.497 0 0 1-16.546-1.534 393.013 393.013 0 0 1-6.928-0.837c-0.068-0.015-2.453-0.336-2.731-0.376a432.007 432.007 0 0 1-5.421-0.817c-22.292-3.469-44.282-8.794-65.751-15.711-10.586-3.411-21.022-7.282-31.31-11.503-0.188-0.077-1.451-0.609-2.095-0.879-0.961-0.412-1.922-0.827-2.881-1.245a432.563 432.563 0 0 1-22.745-10.754c-19.568-9.924-38.323-21.427-56.159-34.197a430.043 430.043 0 0 1-9.492-7.016c-0.136-0.103-0.931-0.717-1.502-1.158a434.916 434.916 0 0 1-12.842-10.427c-8.346-7.026-16.395-14.403-24.189-22.035-7.794-7.632-15.266-15.591-22.465-23.785a434.463 434.463 0 0 1-15.047-18.149l-0.539-0.683-0.326-0.426a445.13 445.13 0 0 1-3.162-4.185c-13.136-17.551-24.856-36.148-35.186-55.48-5.198-9.728-9.978-19.677-14.415-29.774-0.37-0.841-0.731-1.686-1.093-2.53-0.099-0.243-0.932-2.208-1.03-2.446a438.476 438.476 0 0 1-2.974-7.41c-2.112-5.384-4.09-10.819-5.983-16.283-7.367-21.263-12.954-43.129-16.906-65.278-0.904-5.066-1.688-10.153-2.407-15.248-0.087-0.669-0.297-2.227-0.325-2.447a433.244 433.244 0 0 1-1.493-13.725c-1.093-11.583-1.665-23.212-1.832-34.844-0.168-11.692 0.183-23.388 0.947-35.055 0.362-5.534 0.857-11.059 1.43-16.576 0.285-2.743 0.61-5.482 0.947-8.22 0.026-0.207 0.209-1.593 0.303-2.315 0.213-1.529 0.434-3.056 0.661-4.583 3.331-22.332 8.521-44.375 15.309-65.905 12.908-40.937 31.737-78.635 57.872-115.607 3.029-4.284 6.154-8.5 9.335-12.671l0.167-0.22 0.698-0.889c0.807-1.032 1.624-2.057 2.44-3.082a437.876 437.876 0 0 1 5.8-7.104c6.976-8.389 14.305-16.482 21.89-24.323 7.585-7.84 15.498-15.359 23.649-22.607a436.154 436.154 0 0 1 18.057-15.154c0.758-0.604 1.522-1.2 2.285-1.798-0.206 0.171 2.612-2.008 2.969-2.279 17.467-13.238 35.988-25.068 55.251-35.513 9.692-5.255 19.607-10.094 29.673-14.591a437.355 437.355 0 0 1 3.645-1.602c0.181-0.079 1.372-0.587 2.028-0.869a458.11 458.11 0 0 1 6.663-2.722 428.49 428.49 0 0 1 16.236-6.08c21.2-7.493 43.012-13.213 65.117-17.301a432.431 432.431 0 0 1 16.196-2.652c0.224-0.033 1.812-0.25 2.463-0.342 1.029-0.132 2.058-0.264 3.088-0.391a435.48 435.48 0 0 1 9.603-1.06c11.561-1.165 23.17-1.81 34.786-2.051 11.7-0.243 23.408 0.035 35.089 0.725a437.152 437.152 0 0 1 24.84 2.222c1.368 0.16 2.734 0.333 4.1 0.505l0.615 0.08c0.735 0.102 1.47 0.205 2.205 0.311 22.373 3.192 44.468 8.247 66.059 14.907 10.641 3.282 21.137 7.028 31.49 11.127 2.151 0.852 4.289 1.736 6.426 2.625 0.543 0.234 2.059 0.876 2.266 0.966a432.38 432.38 0 0 1 19.234 8.915c19.7 9.689 38.605 20.969 56.605 33.531a435.157 435.157 0 0 1 12.73 9.26c0.719 0.542 1.433 1.091 2.148 1.638-0.112-0.078 1.86 1.453 2.079 1.625a433.615 433.615 0 0 1 7.139 5.757c8.431 6.926 16.569 14.206 24.456 21.745 7.885 7.538 15.451 15.405 22.748 23.512a434.82 434.82 0 0 1 19.293 23.056l0.093 0.121c13.34 17.382 25.278 35.827 35.838 55.02 5.312 9.656 10.21 19.537 14.767 29.57a421.246 421.246 0 0 1 3.214 7.284l0.306 0.706 0.252 0.606c0.512 1.227 1.013 2.459 1.514 3.691 2.176 5.351 4.219 10.755 6.177 16.188 7.618 21.136 13.471 42.894 17.696 64.956 1.028 5.368 1.928 10.76 2.752 16.162 0.207 1.356 0.4 2.714 0.594 4.072l0.092 0.64 0.106 0.82c0.414 3.19 0.777 6.387 1.12 9.585 1.237 11.538 1.955 23.128 2.27 34.726 0.102 3.754 0.138 7.509 0.144 11.264-0.075 46.52-6.432 86.979-21.287 132.117z" fill="#FF5152" p-id="4358"></path><path d="M708.716 242.007l-89.607 89.607-105.953 105.953-78.483-78.483-112.472-112.472-4.604-4.604c-5.779-5.779-15.434-5.779-21.213 0-5.779 5.779-5.779 15.434 0 21.213l89.607 89.607 93.536 93.536h-140.5c-19.346 0-19.346 30 0 30h159.13v98.143h-115.21c-19.346 0-19.346 30 0 30h115.21v166.881c0 19.346 30 19.346 30 0v-122.3-44.58h115.21c19.346 0 19.346-30 0-30h-115.21V478.26v-1.895h159.13c19.346 0 19.346-30 0-30h-140.5l66.067-66.067 112.472-112.472 4.604-4.604c5.779-5.779 5.779-15.434 0-21.213-5.78-5.781-15.435-5.781-21.214-0.002z" fill="#FF5152" p-id="4359"></path></svg>