<?xml version="1.0" standalone="no"?><!DOCTYPE svg PUBLIC "-//W3C//DTD SVG 1.1//EN" "http://www.w3.org/Graphics/SVG/1.1/DTD/svg11.dtd"><svg t="1589088792144" class="icon" viewBox="0 0 1024 1024" version="1.1" xmlns="http://www.w3.org/2000/svg" p-id="3713" xmlns:xlink="http://www.w3.org/1999/xlink" width="128" height="128"><defs><style type="text/css"></style></defs><path d="M 471.78 1024 C 221.29 1024 16.02 826.77 3.09 579.44 C -10.97 310.42 205.37 85.32 474.76 85.32 h 26.35 c 0.15 0 0.26 0.12 0.26 0.26 V 524.8 c 0 0.15 0.12 0.26 0.26 0.26 H 940.8 c 0.15 0 0.26 0.12 0.26 0.26 v 29.33 c 0 258.82 -210.53 469.35 -469.28 469.35 Z M 441.9 145.61 C 202.41 162.92 19.24 386.83 70.21 639.52 C 99.34 783.98 242.54 927.14 387 956.25 c 252.67 50.92 476.5 -132.24 493.81 -371.71 a 0.263 0.263 0 0 0 -0.26 -0.28 h -438.1 c -0.15 0 -0.26 -0.12 -0.26 -0.26 V 145.87 c 0 -0.15 -0.14 -0.27 -0.29 -0.26 Z" p-id="3714"></path><path d="M 1022.25 498.94 H 523.84 c -0.15 0 -0.26 -0.12 -0.26 -0.26 V 0.26 c 0 -0.15 0.12 -0.26 0.26 -0.26 h 29.07 c 259.35 0 469.6 210.25 469.6 469.6 v 29.07 c 0 0.15 -0.11 0.27 -0.26 0.27 Z m -439.21 -59.2 H 962 c 0.15 0 0.28 -0.13 0.26 -0.28 c -14.64 -202.39 -176.81 -364.54 -379.2 -379.18 a 0.263 0.263 0 0 0 -0.28 0.26 v 378.93 c -0.01 0.15 0.11 0.27 0.26 0.27 Z" p-id="3715"></path></svg>