<?xml version="1.0" standalone="no"?><!DOCTYPE svg PUBLIC "-//W3C//DTD SVG 1.1//EN" "http://www.w3.org/Graphics/SVG/1.1/DTD/svg11.dtd"><svg t="1589089154516" class="icon" viewBox="0 0 1024 1024" version="1.1" xmlns="http://www.w3.org/2000/svg" p-id="11144" xmlns:xlink="http://www.w3.org/1999/xlink" width="128" height="128"><defs><style type="text/css"></style></defs><path d="M 511.999 2.318 c -281.491 0 -509.68 228.192 -509.68 509.68 c 0 281.492 228.192 509.683 509.68 509.683 c 281.492 0 509.683 -228.192 509.683 -509.683 c 0 -281.49 -228.192 -509.68 -509.683 -509.68 v 0 Z M 847.627 847.627 c -43.6 43.605 -94.365 77.835 -150.88 101.737 c -58.5 24.74 -120.654 37.287 -184.747 37.287 c -64.092 0 -126.247 -12.547 -184.746 -37.287 c -56.514 -23.903 -107.28 -58.131 -150.882 -101.737 c -43.605 -43.6 -77.834 -94.365 -101.735 -150.88 c -24.739 -58.5 -37.286 -120.654 -37.286 -184.747 c 0 -64.092 12.546 -126.247 37.286 -184.746 c 23.903 -56.514 58.131 -107.28 101.735 -150.882 c 43.601 -43.605 94.366 -77.834 150.882 -101.735 c 58.498 -24.739 120.654 -37.286 184.746 -37.286 c 64.093 0 126.247 12.546 184.747 37.286 c 56.514 23.903 107.281 58.132 150.88 101.735 c 43.606 43.601 77.835 94.366 101.737 150.882 c 24.739 58.498 37.287 120.654 37.287 184.746 c 0 64.095 -12.548 126.247 -37.287 184.747 c -23.903 56.514 -58.13 107.281 -101.737 150.88 v 0 Z M 660.212 192.731 l -97.292 179.264 c -25.943 48.582 -41.812 80.869 -47.605 96.873 h -1.661 c -17.111 -38.913 -65.407 -130.963 -144.896 -276.138 h -91.495 l 170.154 292.284 l -139.522 0.001 v 64.585 h 163.53 v 89.01 l -163.53 -0.001 v 65.413 h 163.53 v 129.586 h 81.142 v -129.586 h 157.733 v -65.413 h -157.727 v -89.01 l 157.734 0.001 v -64.585 h -135.379 l 171.808 -292.289 l -86.526 0.005 Z M 660.212 192.731 Z" p-id="11145"></path></svg>