<?xml version="1.0" standalone="no"?><!DOCTYPE svg PUBLIC "-//W3C//DTD SVG 1.1//EN" "http://www.w3.org/Graphics/SVG/1.1/DTD/svg11.dtd"><svg t="1587278294556" class="icon" viewBox="0 0 1024 1024" version="1.1" xmlns="http://www.w3.org/2000/svg" p-id="7740" xmlns:xlink="http://www.w3.org/1999/xlink" width="128" height="128"><defs><style type="text/css"></style></defs><path d="M1024 635.904c0-141.824-141.824-257.536-301.568-257.536-168.96 0-302.08 115.712-302.08 257.536 0 142.336 132.608 257.536 302.08 257.536 35.328 0 71.168-9.216 106.496-17.408l97.28 53.248-26.624-88.576c71.168-53.76 124.416-124.928 124.416-204.8z m-399.36-44.032c-17.408 0-35.328-17.408-35.328-35.328 0-17.408 17.92-35.328 35.328-35.328 26.624 0 44.544 17.92 44.544 35.328 0 17.408-17.92 35.328-44.544 35.328z m195.584 0c-17.408 0-35.328-17.408-35.328-35.328 0-17.408 17.408-35.328 35.328-35.328 26.624 0 44.544 17.92 44.544 35.328-0.512 17.408-18.432 35.328-44.544 35.328z" fill="#707070" p-id="7741"></path><path d="M693.248 347.136c11.776 0 23.552 1.024 34.816 2.048-31.232-145.92-187.392-254.464-365.568-254.464C163.328 94.72 0 230.4 0 402.944c0 99.328 54.272 181.248 144.896 244.736l-36.352 109.056L235.52 693.248c45.568 8.704 81.92 17.92 126.976 17.92 11.264 0 22.528-0.512 33.792-1.536-7.168-24.064-11.264-49.664-11.264-75.776 0-158.208 136.192-286.72 308.224-286.72zM498.176 248.832c27.136 0 45.568 17.92 45.568 45.568 0 27.136-17.92 45.568-45.568 45.568-27.136 0-54.784-17.92-54.784-45.568 0.512-27.648 27.648-45.568 54.784-45.568zM244.224 339.456c-27.136 0-54.784-17.92-54.784-45.568 0-27.136 27.136-45.568 54.784-45.568 27.136 0 45.568 17.92 45.568 45.568 0 27.136-17.92 45.568-45.568 45.568z" fill="#707070" p-id="7742"></path></svg>