<?xml version="1.0" standalone="no"?><!DOCTYPE svg PUBLIC "-//W3C//DTD SVG 1.1//EN" "http://www.w3.org/Graphics/SVG/1.1/DTD/svg11.dtd"><svg t="1587048114441" class="icon" viewBox="0 0 1024 1024" version="1.1" xmlns="http://www.w3.org/2000/svg" p-id="1934" xmlns:xlink="http://www.w3.org/1999/xlink" width="200" height="200"><defs><style type="text/css"></style></defs><path d="M643.584 667.53c-89.718 107.638-182.43 173.45-322.954 173.45-140.603 0-233.314-86.725-221.341-191.41 5.986-68.765 53.838-182.43 260.174-164.47 107.678 8.94 158.523 29.893 248.242 59.786 23.906-41.866 41.865-89.718 56.832-137.57H269.745v-38.873h194.403v-68.726H227.879v-44.899h236.269V153.167S467.14 138.2 485.1 138.2h98.659v116.617h251.234v41.866H580.766v68.766H787.14a730.19 730.19 0 0 1-83.732 209.368c50.806 17.92 257.182 80.739 317.007 98.698V150.134c0-83.732-68.805-149.543-149.543-149.543H150.134C66.402 0.59 0.591 69.396 0.591 150.134v723.732c0 83.732 68.805 149.543 149.543 149.543h723.732c83.732 0 149.543-68.765 149.543-149.543v-35.84C972.564 814.08 745.275 715.382 643.584 667.49z" fill="#009EE9" p-id="1935"></path><path d="M141.154 640.59c-8.98 38.873 14.967 131.585 164.47 131.585 89.719 0 179.476-56.793 251.235-149.504-101.691-50.846-185.423-74.792-281.127-74.792-83.732 2.994-125.637 53.84-134.578 92.712z" fill="#009EE9" p-id="1936"></path></svg>