<?xml version="1.0" standalone="no"?><!DOCTYPE svg PUBLIC "-//W3C//DTD SVG 1.1//EN" "http://www.w3.org/Graphics/SVG/1.1/DTD/svg11.dtd"><svg t="1587278367020" class="icon" viewBox="0 0 1065 1024" version="1.1" xmlns="http://www.w3.org/2000/svg" p-id="10112" xmlns:xlink="http://www.w3.org/1999/xlink" width="133.125" height="128"><defs><style type="text/css"></style></defs><path d="M610.532009 584.822869l71.456994 98.703877a76.887148 76.887148 0 0 0 13.935795-15.089103 51.994934 51.994934 0 0 0 9.610894-42.384041 64.344932 64.344932 0 0 0-11.917508-25.564976 50.313027 50.313027 0 0 0-35.656415-21.240075 105.719828 105.719828 0 0 0-47.42976 5.574318zM492.894673 552.289995a47.766141 47.766141 0 0 0 34.214781 21.576456 96.973915 96.973915 0 0 0 44.114001-7.064007l-67.276254-92.649013a57.665361 57.665361 0 0 0-22.105056 35.944741 53.67684 53.67684 0 0 0 11.052528 42.191823z" fill="#707070" p-id="10113"></path><path d="M104.374303 684.96838l237.100743 327.443141a27.919646 27.919646 0 0 0 39.068282 6.247081l673.627525-487.704791a27.9677 27.9677 0 0 0 6.247081-39.116336l-237.100743-327.395087a27.9677 27.9677 0 0 0-39.068282-6.295136L110.525275 645.900097a27.919646 27.919646 0 0 0-6.150972 39.068283zM735.233353 615.097184a78.040455 78.040455 0 0 1 0 32.340656 91.832087 91.832087 0 0 1-13.11887 30.658751 106.05621 106.05621 0 0 1-17.347663 19.990658 10.620037 10.620037 0 0 0-1.681906 14.176068l6.631516 9.226458a10.571983 10.571983 0 0 1-2.402723 14.800776 10.571983 10.571983 0 0 1-14.704667-2.402724l-6.679571-9.274512a10.523928 10.523928 0 0 0-13.935796-2.835213 119.751733 119.751733 0 0 1-43.585402 15.233266 124.941615 124.941615 0 0 1-39.933262-0.96109 10.523928 10.523928 0 0 1-7.880933-13.839686l2.739105-7.928987a10.427819 10.427819 0 0 1 12.494161-6.823735 59.443376 59.443376 0 0 0 13.022761 2.114397 107.978388 107.978388 0 0 0 21.912837-1.105253 88.372166 88.372166 0 0 0 19.510114-5.093773l3.12354-1.249417a10.668092 10.668092 0 0 0 4.805447-16.050192l-63.479951-86.834422a10.716146 10.716146 0 0 0-11.917508-3.796303c-7.784824 2.498832-15.713811 4.805447-23.690853 6.391244a112.927999 112.927999 0 0 1-32.148439 2.450778 83.999209 83.999209 0 0 1-30.65875-8.217314 72.706409 72.706409 0 0 1-26.718284-23.642798 83.03812 83.03812 0 0 1-14.41634-31.908167 79.145708 79.145708 0 0 1-0.336381-32.05233 86.498041 86.498041 0 0 1 12.301943-29.649606 107.497844 107.497844 0 0 1 15.521593-18.452915 10.523928 10.523928 0 0 0 1.39358-13.887742l-6.823734-9.610893a10.620037 10.620037 0 0 1 2.450777-14.848831 10.571983 10.571983 0 0 1 14.704667 2.450778l6.823735 9.610894a10.571983 10.571983 0 0 0 13.887741 2.931322c3.604085-2.066342 7.352334-3.988521 11.148636-5.718481a114.417687 114.417687 0 0 1 21.576456-7.544552 111.101929 111.101929 0 0 1 23.210308-3.171595 86.498041 86.498041 0 0 1 10.571983 0.384436 10.571983 10.571983 0 0 1 8.986185 13.599414l-2.114396 7.544552a10.475874 10.475874 0 0 1-11.821399 7.352333 64.056605 64.056605 0 0 0-24.940269 0 83.710882 83.710882 0 0 0-19.221787 6.102918 10.571983 10.571983 0 0 0-3.988521 15.80992l60.116139 83.086174a10.716146 10.716146 0 0 0 11.533072 3.940466c8.986185-2.594941 18.116534-4.805447 27.246884-6.679571a120.760877 120.760877 0 0 1 34.022562-2.210505 86.498041 86.498041 0 0 1 31.715949 9.082294 80.106797 80.106797 0 0 1 27.823537 25.228595 82.509521 82.509521 0 0 1 14.41634 31.523731z" fill="#707070" p-id="10114"></path><path d="M354.305589 404.282235a49.496102 49.496102 0 0 0 4.805447 22.681709l42.335985-30.658751L370.788271 365.213953a57.665361 57.665361 0 0 0-16.482682 39.068282z" fill="#707070" p-id="10115"></path><path d="M329.653647 448.396236a8.361477 8.361477 0 0 0 2.931322-9.610893 78.857381 78.857381 0 0 1-5.334045-31.61984 86.498041 86.498041 0 0 1 7.352333-31.187349 107.35368 107.35368 0 0 1 13.839687-22.681709 7.880933 7.880933 0 0 0-0.624708-10.571983l-11.821399-12.109726a8.025096 8.025096 0 0 1 0-11.388908l3.652139-3.700194a8.121205 8.121205 0 0 1 11.436963 0l11.485018 11.533072a8.025096 8.025096 0 0 0 10.812255 0.528599c3.844357-3.171595 7.832878-6.102917 11.917508-8.890077a122.106402 122.106402 0 0 1 20.375095-10.908364 107.449789 107.449789 0 0 1 22.393381-6.77568 85.825279 85.825279 0 0 1 14.031905-1.441634 7.977042 7.977042 0 0 1 7.977041 9.130349l-1.826069 13.839687a8.073151 8.073151 0 0 1-8.649804 6.967898 63.479952 63.479952 0 0 0-26.23774 3.796302 80.106797 80.106797 0 0 0-20.903693 11.100582 7.977042 7.977042 0 0 0-0.720817 12.061672l22.441436 22.441436a8.073151 8.073151 0 0 0 10.42782 0.864981l313.747618-226.720978a25.853304 25.853304 0 0 0 3.12354-39.212446L635.232006 7.544551a25.901358 25.901358 0 0 0-36.521396 0l-591.06995 591.06995a25.805249 25.805249 0 0 0 0 36.521396L126.767685 754.45514l-70.976448-98.223332a8.121205 8.121205 0 0 1 1.82607-11.2928z" fill="#707070" p-id="10116"></path></svg>